<svg xmlns="http://www.w3.org/2000/svg" viewBox="0 0 700 700"><defs><linearGradient id="bg" x1="0" y1="0" x2="1" y2="1"><stop stop-color="#071d3b"/><stop offset=".55" stop-color="#153f76"/><stop offset="1" stop-color="#050a18"/></linearGradient><linearGradient id="gold"><stop stop-color="#fff1a0"/><stop offset=".5" stop-color="#ffd21f"/><stop offset="1" stop-color="#b56b00"/></linearGradient></defs><rect width="700" height="700" rx="80" fill="url(#bg)"/><g opacity=".28" fill="#4fc3ff"><circle cx="95" cy="120" r="7"/><circle cx="600" cy="170" r="5"/><circle cx="540" cy="570" r="8"/><circle cx="120" cy="560" r="4"/></g><g transform="translate(125 110)"><circle cx="225" cy="225" r="180" fill="#0c1830" stroke="url(#gold)" stroke-width="16"/><circle cx="225" cy="225" r="145" fill="none" stroke="#55e9ff" stroke-width="6" stroke-dasharray="14 18"/><path d="M225 92c55 0 100 45 100 100 0 79-100 146-100 146s-100-67-100-146c0-55 45-100 100-100z" fill="#55cfff" opacity=".9"/><path d="M225 128c35 0 64 29 64 64 0 50-64 95-64 95s-64-45-64-95c0-35 29-64 64-64z" fill="#ff4e91"/><circle cx="225" cy="191" r="29" fill="#fff"/><path d="m225 172 7 14 15 2-11 11 3 15-14-7-14 7 3-15-11-11 15-2z" fill="#5b36ff"/></g><text x="350" y="590" text-anchor="middle" font-family="Arial,Helvetica,sans-serif" font-size="88" font-weight="900" fill="url(#gold)">100 TON</text><text x="350" y="638" text-anchor="middle" font-family="Arial,Helvetica,sans-serif" font-size="24" font-weight="700" fill="#c7f8ff">DIGITAL COLLECTIBLES</text></svg>