<svg xmlns="http://www.w3.org/2000/svg" viewBox="0 0 1228 314"><defs><linearGradient id="bg" x1="0" y1="0" x2="1" y2="1"><stop stop-color="#182b4a"/><stop offset=".55" stop-color="#3d526f"/><stop offset="1" stop-color="#10182c"/></linearGradient><linearGradient id="p" x1="0" y1="0" x2="1" y2="1"><stop stop-color="#8b4dff"/><stop offset="1" stop-color="#3a1c9c"/></linearGradient></defs><rect width="1228" height="314" rx="34" fill="url(#bg)"/><g transform="translate(100 75)" fill="none" stroke="#fff" stroke-width="11" stroke-linejoin="round"><path d="M0 46c0-19 15-34 34-34h84c19 0 34 15 34 34v60H0z"/><path d="M42 43v43M21 64h42"/><circle cx="122" cy="58" r="7" fill="#fff"/><circle cx="143" cy="79" r="7" fill="#fff"/></g><g transform="translate(770 38)"><rect x="0" y="35" width="132" height="142" rx="22" fill="url(#p)" transform="rotate(-10 66 106)"/><rect x="105" y="65" width="132" height="142" rx="22" fill="#2385ff" transform="rotate(9 171 136)"/><rect x="205" y="30" width="110" height="120" rx="20" fill="#ffcf42" transform="rotate(17 260 90)"/><circle cx="67" cy="105" r="23" fill="#10182c"/><path d="m55 105 10 10 18-24" stroke="#fff" stroke-width="8" fill="none"/><circle cx="171" cy="137" r="23" fill="#fff"/><circle cx="171" cy="137" r="10" fill="#2385ff"/></g><text x="250" y="135" font-family="Arial,Helvetica,sans-serif" font-size="57" font-weight="900" fill="#f4f8ff">PLAY HUB</text><text x="252" y="178" font-family="Arial,Helvetica,sans-serif" font-size="25" font-weight="700" fill="#c9d8ed">More games, more rewards</text></svg>